<?xml version="1.0" standalone="no"?>
<!DOCTYPE svg PUBLIC "-//W3C//DTD SVG 20010904//EN"
 "http://www.w3.org/TR/2001/REC-SVG-20010904/DTD/svg10.dtd">
<svg version="1.0" xmlns="http://www.w3.org/2000/svg"
 width="476.000000pt" height="255.000000pt" viewBox="0 0 476.000000 255.000000"
 preserveAspectRatio="xMidYMid meet">

<g transform="translate(0.000000,255.000000) scale(0.100000,-0.100000)"
fill="#000000" stroke="none">
<path d="M2043 2041 c-189 -109 -350 -204 -358 -211 -13 -11 -15 -65 -13 -409
l3 -396 53 -3 52 -3 0 375 0 374 305 176 c168 97 310 176 315 176 6 0 148 -79
315 -176 l305 -176 0 -375 0 -374 53 3 52 3 3 397 2 396 -27 20 c-57 40 -693
402 -705 401 -7 0 -167 -89 -355 -198z"/>
<path d="M2183 1825 c-61 -63 -85 -106 -87 -157 -1 -55 51 -119 88 -105 12 5
16 20 16 72 0 69 14 87 24 31 4 -18 24 -60 45 -93 30 -46 46 -61 69 -66 18 -4
33 -14 37 -27 4 -11 15 -20 27 -20 15 0 18 4 14 17 -4 10 -4 14 0 11 3 -4 13
-1 21 7 8 8 23 15 34 15 24 0 96 107 105 156 10 56 24 38 24 -31 0 -52 4 -67
16 -72 36 -14 87 47 87 104 0 51 -24 94 -86 158 l-52 52 -64 -1 c-62 -1 -65
-2 -77 -31 -15 -39 -1 -85 45 -143 44 -53 46 -97 8 -126 -39 -29 -115 -29
-154 0 -38 30 -35 69 10 129 49 63 62 106 45 142 -12 26 -18 28 -78 29 l-65 1
-52 -52z m157 -55 c0 -5 -9 -10 -20 -10 -11 0 -20 5 -20 10 0 6 9 10 20 10 11
0 20 -4 20 -10z m164 1 c3 -5 -5 -11 -19 -13 -17 -4 -25 -1 -25 8 0 15 36 19
44 5z"/>
<path d="M2355 1649 c-9 -14 23 -49 45 -49 22 0 54 35 45 49 -3 6 -24 11 -45
11 -21 0 -42 -5 -45 -11z"/>
<path d="M2256 1425 c-41 -55 -69 -123 -90 -224 -8 -40 -17 -75 -20 -79 -3 -3
-6 22 -6 56 0 64 -6 72 -48 64 -34 -7 -62 -58 -62 -115 0 -54 17 -92 68 -155
l35 -43 -21 -15 c-14 -10 -22 -26 -22 -44 0 -28 -1 -29 -67 -35 -178 -18 -99
-23 377 -23 477 0 559 5 378 23 -66 7 -68 8 -68 35 0 18 -8 35 -22 44 l-21 15
35 43 c51 62 68 101 68 153 0 58 -21 100 -57 112 -46 16 -53 7 -54 -65 -1 -74
-4 -69 -33 63 -28 124 -103 246 -140 232 -20 -8 -20 -47 -1 -132 13 -53 13
-74 5 -101 -14 -42 -35 -54 -92 -54 -86 0 -106 39 -82 158 27 134 3 169 -60
87z m124 -325 c-8 -5 -24 -10 -35 -10 -11 0 -29 -7 -39 -15 -35 -27 -76 -14
-43 13 16 13 44 19 92 21 29 0 36 -2 25 -9z m156 -11 c8 -6 14 -16 14 -21 0
-10 -70 -42 -77 -34 -2 2 5 7 16 11 30 9 26 21 -11 35 -72 26 -74 31 -15 26
32 -3 65 -10 73 -17z m-136 -73 c70 0 104 5 128 17 37 20 43 7 8 -20 -34 -26
-41 -56 -16 -78 17 -15 24 -16 45 -7 27 13 28 12 38 -36 7 -30 -12 -39 -116
-52 -62 -7 -112 -7 -172 0 -111 14 -115 16 -115 54 0 41 6 47 36 34 19 -9 28
-8 44 7 28 25 25 50 -10 75 -40 29 -38 45 3 23 23 -12 57 -17 127 -17z"/>
<path d="M2370 955 c0 -8 5 -15 10 -15 6 0 10 7 10 15 0 8 -4 15 -10 15 -5 0
-10 -7 -10 -15z"/>
<path d="M2410 955 c0 -8 5 -15 10 -15 6 0 10 7 10 15 0 8 -4 15 -10 15 -5 0
-10 -7 -10 -15z"/>
<path d="M2350 920 c0 -5 5 -10 10 -10 6 0 10 5 10 10 0 6 -4 10 -10 10 -5 0
-10 -4 -10 -10z"/>
<path d="M2375 910 c-24 -27 -13 -50 25 -50 38 0 49 23 25 50 -22 25 -28 25
-50 0z"/>
<path d="M2435 920 c-3 -5 -1 -10 4 -10 6 0 11 5 11 10 0 6 -2 10 -4 10 -3 0
-8 -4 -11 -10z"/>
<path d="M2099 623 c-15 -4 -16 -19 -11 -131 3 -76 9 -130 16 -134 18 -12 94
-9 129 6 52 22 70 50 74 114 5 69 -19 116 -72 138 -32 13 -100 17 -136 7z
m129 -125 c17 -17 15 -64 -4 -82 -26 -27 -34 -18 -34 39 0 56 12 69 38 43z"/>
<path d="M2653 620 c-54 -22 -58 -93 -8 -149 42 -46 47 -76 11 -69 -21 4 -23
2 -17 -21 14 -50 103 -32 117 23 3 14 -1 37 -11 56 -18 35 -13 65 10 56 12 -4
15 4 15 42 0 27 -5 53 -12 60 -14 14 -73 15 -105 2z"/>
<path d="M2834 611 c-72 -44 -71 -182 1 -239 66 -52 156 -4 170 92 19 122 -77
204 -171 147z m88 -126 c8 -18 8 -32 -2 -55 -16 -38 -40 -36 -53 3 -19 58 30
105 55 52z"/>
<path d="M3351 621 c-12 -7 -13 -32 -7 -132 4 -79 11 -126 19 -131 15 -9 64
-10 106 -2 115 23 134 206 27 255 -43 20 -121 25 -145 10z m141 -136 c13 -29
-1 -72 -27 -82 -24 -8 -27 0 -19 56 7 57 27 68 46 26z"/>
<path d="M3810 624 c-12 -4 -15 -23 -12 -112 4 -153 3 -152 57 -152 40 0 44 2
47 28 l3 27 25 -37 c24 -35 25 -36 52 -22 33 17 33 17 7 53 l-21 28 26 26 c40
41 32 116 -17 147 -21 13 -138 23 -167 14z m125 -129 c0 -20 -6 -31 -17 -33
-15 -3 -18 4 -18 33 0 29 3 36 18 33 11 -2 17 -13 17 -33z"/>
<path d="M684 543 c3 -42 6 -100 6 -130 l0 -53 103 1 c64 1 105 5 110 13 5 8
10 7 16 -4 8 -12 13 -12 30 4 19 17 21 17 21 3 0 -14 10 -17 50 -17 35 0 48 4
45 13 -2 6 -16 65 -30 130 l-27 117 -48 0 c-38 0 -50 -4 -53 -17 -3 -10 -16
-65 -28 -123 -13 -58 -25 -98 -27 -89 -2 11 -11 14 -33 11 l-31 -5 4 112 3
111 -59 0 -59 0 7 -77z m273 -118 c-2 -5 -13 -11 -25 -13 -20 -3 -21 -1 -10
29 10 30 12 31 25 13 7 -10 12 -23 10 -29z"/>
<path d="M1150 573 c0 -27 3 -85 7 -130 6 -83 6 -83 34 -83 25 0 28 4 31 37
l3 38 31 -43 31 -42 29 42 29 43 3 -37 c3 -35 6 -38 33 -38 28 0 29 2 29 48 0
26 3 84 7 130 l6 82 -45 0 c-41 0 -47 -3 -58 -30 -22 -53 -36 -56 -60 -11 -19
39 -23 41 -65 41 l-45 0 0 -47z"/>
<path d="M1470 563 c-6 -32 -20 -91 -30 -130 l-18 -73 23 0 c13 0 27 5 30 10
5 8 11 8 20 0 9 -7 16 -6 25 6 12 14 14 14 22 0 6 -11 24 -16 54 -16 41 0 44
2 39 23 -3 12 -16 69 -29 127 l-23 105 -51 3 -50 3 -12 -58z m53 -115 c7 -26
1 -38 -19 -38 -16 0 -17 5 -8 38 8 28 20 28 27 0z"/>
<path d="M1650 573 c0 -27 3 -85 7 -130 6 -79 7 -83 29 -83 22 0 24 4 24 45 0
26 5 45 11 45 6 0 34 -18 63 -41 l51 -41 7 48 c3 27 7 84 7 127 l1 77 -31 0
c-28 0 -31 -2 -25 -25 4 -14 3 -25 -2 -25 -5 0 -19 11 -32 25 -18 19 -34 25
-67 25 l-43 0 0 -47z"/>
<path d="M1910 598 c0 -13 -11 -69 -25 -126 -14 -57 -25 -105 -25 -108 0 -2
11 -4 25 -4 17 0 25 6 25 18 1 16 1 16 11 0 8 -15 13 -16 31 -5 16 9 22 9 25
0 6 -17 93 -17 93 0 0 6 -12 65 -27 130 l-27 117 -53 0 c-48 0 -53 -2 -53 -22z
m49 -150 c9 -23 -1 -38 -26 -38 -9 0 -9 8 -2 30 13 36 17 37 28 8z"/>
<path d="M2350 513 c-12 -60 -25 -118 -28 -130 -4 -19 0 -23 22 -23 18 0 26 5
26 18 1 16 1 16 11 0 8 -15 13 -16 31 -5 16 9 22 9 25 0 3 -8 23 -13 50 -13
42 0 45 2 41 23 -3 12 -16 70 -29 129 l-24 108 -51 0 -51 0 -23 -107z m66 -89
c-3 -8 -12 -14 -21 -14 -18 0 -18 1 -4 37 9 25 11 26 21 10 5 -10 7 -25 4 -33z"/>
<path d="M3024 574 c3 -26 6 -84 6 -130 l0 -84 79 0 c75 0 79 1 83 24 5 23 3
24 -30 19 l-35 -6 6 111 7 112 -62 0 -61 0 7 -46z"/>
<path d="M3210 528 c0 -51 3 -110 6 -130 6 -37 8 -38 49 -38 l42 0 7 77 c3 42
6 100 6 130 l0 53 -55 0 -55 0 0 -92z"/>
<path d="M3625 598 c-17 -78 -46 -206 -51 -220 -4 -14 0 -18 19 -18 14 0 28 6
30 13 4 9 8 8 16 -3 8 -12 13 -12 30 4 19 17 21 17 21 3 0 -14 10 -17 50 -17
35 0 48 4 45 13 -2 6 -16 65 -30 130 l-27 117 -49 0 c-42 0 -49 -3 -54 -22z
m52 -173 c-2 -5 -13 -11 -25 -13 -20 -3 -21 -1 -10 29 10 30 12 31 25 13 7
-10 12 -23 10 -29z"/>
<path d="M4034 543 c3 -42 6 -100 6 -130 l0 -53 50 0 50 0 0 84 c0 46 3 104 6
130 l7 46 -63 0 -63 0 7 -77z"/>
<path d="M4200 563 c-6 -32 -20 -91 -30 -130 l-18 -73 23 0 c13 0 27 5 30 10
5 8 11 8 20 0 9 -7 16 -6 25 6 12 14 14 14 22 0 6 -11 24 -16 54 -16 41 0 44
2 39 23 -3 12 -16 69 -29 127 l-23 105 -51 3 -50 3 -12 -58z m53 -115 c7 -26
1 -38 -19 -38 -16 0 -17 5 -8 38 8 28 20 28 27 0z"/>
</g>
</svg>
