<?xml version="1.0" standalone="no"?>
<!DOCTYPE svg PUBLIC "-//W3C//DTD SVG 20010904//EN"
 "http://www.w3.org/TR/2001/REC-SVG-20010904/DTD/svg10.dtd">
<svg version="1.0" xmlns="http://www.w3.org/2000/svg"
 width="476.000000pt" height="303.000000pt" viewBox="0 0 476.000000 303.000000"
 preserveAspectRatio="xMidYMid meet">
<metadata>
Created by potrace 1.16, written by Peter Selinger 2001-2019
</metadata>
<g transform="translate(0.000000,303.000000) scale(0.100000,-0.100000)"
fill="#000000" stroke="none">
<path d="M2280 2743 c-102 -53 -186 -100 -188 -105 -2 -4 -10 -8 -17 -8 -12 0
-795 -398 -795 -404 0 -1 59 -42 130 -91 l130 -89 0 -553 0 -553 314 0 c252 0
315 3 319 13 3 8 -16 32 -43 55 -85 73 -90 149 -21 313 50 118 60 191 37 253
-19 50 -85 116 -116 116 -29 0 -25 -13 10 -33 41 -25 70 -85 70 -146 0 -47 -2
-52 -32 -67 -97 -50 -164 -139 -197 -261 -11 -44 -21 -91 -21 -106 0 -37 -15
-41 -63 -18 -46 22 -61 42 -88 111 l-17 45 -17 -39 c-17 -39 -17 -112 -1 -148
7 -15 3 -18 -28 -18 l-36 0 0 620 0 620 73 36 c39 20 74 40 75 45 2 5 9 9 15
9 7 0 165 79 351 175 187 96 344 175 349 175 14 0 829 -420 850 -438 16 -14
17 -57 17 -629 l0 -613 -100 0 c-87 0 -104 3 -122 20 -16 15 -36 20 -77 20
l-56 1 -37 82 c-92 205 -85 375 20 469 50 45 95 65 185 83 43 8 77 21 92 35
28 26 51 114 41 154 -6 25 -8 26 -91 26 l-85 0 -19 39 c-23 45 -37 52 -110 60
-54 6 -55 7 -88 61 -43 72 -60 71 -97 -5 -81 -168 -190 -306 -310 -392 -28
-21 -65 -51 -83 -69 -17 -17 -44 -34 -60 -38 -15 -4 -51 -19 -80 -34 -46 -24
-52 -30 -57 -67 -4 -22 -27 -90 -51 -150 -46 -113 -53 -151 -34 -188 14 -26
50 -67 59 -67 4 0 15 20 24 45 25 63 97 139 191 200 98 63 134 103 186 208 45
90 74 127 99 127 12 0 15 -8 12 -35 -4 -34 -3 -35 31 -35 26 0 47 -10 81 -37
51 -43 60 -81 25 -110 -98 -83 -119 -124 -119 -234 0 -63 12 -115 45 -197 l17
-42 319 0 319 0 0 565 c0 531 1 565 18 565 20 1 226 141 226 155 1 5 -100 61
-224 125 -737 377 -888 455 -916 471 -17 11 -35 19 -40 19 -5 0 -92 -44 -194
-97z"/>
<path d="M2020 2207 c-50 -25 -61 -81 -35 -182 30 -114 109 -221 196 -265 49
-26 69 -25 69 0 0 26 27 79 93 182 93 146 107 213 50 258 -50 39 -118 23 -182
-44 -19 -20 -38 -36 -43 -36 -4 0 -14 13 -23 30 -26 51 -84 78 -125 57z"/>
<path d="M2508 1179 c-28 -16 -21 -25 16 -21 28 3 37 -1 52 -22 14 -23 15 -33
6 -65 -7 -21 -21 -46 -32 -56 -29 -26 -25 -35 15 -35 24 0 39 -6 47 -20 7 -11
23 -20 35 -20 20 0 21 3 12 38 -51 193 -86 239 -151 201z"/>
<path d="M2099 863 c-15 -4 -16 -19 -11 -131 3 -76 9 -130 16 -134 18 -12 94
-9 129 6 52 22 70 50 74 114 5 69 -19 116 -72 138 -32 13 -100 17 -136 7z"/>
<path d="M2653 860 c-54 -22 -58 -93 -8 -149 42 -46 47 -76 11 -69 -21 4 -23
2 -17 -21 14 -50 103 -32 117 23 3 14 -1 37 -11 56 -18 35 -13 65 10 56 12 -4
15 4 15 42 0 27 -5 53 -12 60 -14 14 -73 15 -105 2z"/>
<path d="M2834 851 c-72 -44 -71 -182 1 -239 66 -52 156 -4 170 92 19 122 -77
204 -171 147z"/>
<path d="M3351 861 c-12 -7 -13 -32 -7 -132 4 -79 11 -126 19 -131 15 -9 64
-10 106 -2 115 23 134 206 27 255 -43 20 -121 25 -145 10z"/>
<path d="M3810 864 c-12 -4 -15 -23 -12 -112 4 -153 3 -152 57 -152 40 0 44 2
47 28 l3 27 25 -37 c24 -35 25 -36 52 -22 33 17 33 17 7 53 l-21 28 26 26 c40
41 32 116 -17 147 -21 13 -138 23 -167 14z"/>
<path d="M684 783 c3 -42 6 -100 6 -130 l0 -53 103 1 c64 1 105 5 110 13 5 8
10 7 16 -4 8 -12 13 -12 30 4 19 17 21 17 21 3 0 -14 10 -17 50 -17 35 0 48 4
45 13 -2 6 -16 65 -30 130 l-27 117 -48 0 c-38 0 -50 -4 -53 -17 -3 -10 -16
-65 -28 -123 -13 -58 -25 -98 -27 -89 -2 11 -11 14 -33 11 l-31 -5 4 112 3
111 -59 0 -59 0 7 -77z"/>
<path d="M1150 813 c0 -27 3 -85 7 -130 6 -83 6 -83 34 -83 25 0 28 4 31 37
l3 38 31 -43 31 -42 29 42 29 43 3 -37 c3 -35 6 -38 33 -38 28 0 29 2 29 48 0
26 3 84 7 130 l6 82 -45 0 c-41 0 -47 -3 -58 -30 -22 -53 -36 -56 -60 -11 -19
39 -23 41 -65 41 l-45 0 0 -47z"/>
<path d="M1470 803 c-6 -32 -20 -91 -30 -130 l-18 -73 23 0 c13 0 27 5 30 10
5 8 11 8 20 0 9 -7 16 -6 25 6 12 14 14 14 22 0 6 -11 24 -16 54 -16 41 0 44
2 39 23 -3 12 -16 69 -29 127 l-23 105 -51 3 -50 3 -12 -58z"/>
<path d="M1650 813 c0 -27 3 -85 7 -130 6 -79 7 -83 29 -83 22 0 24 4 24 45 0
26 5 45 11 45 6 0 34 -18 63 -41 l51 -41 7 48 c3 27 7 84 7 127 l1 77 -31 0
c-28 0 -31 -2 -25 -25 4 -14 3 -25 -2 -25 -5 0 -19 11 -32 25 -18 19 -34 25
-67 25 l-43 0 0 -47z"/>
<path d="M1910 838 c0 -13 -11 -69 -25 -126 -14 -57 -25 -105 -25 -108 0 -2
11 -4 25 -4 17 0 25 6 25 18 1 16 1 16 11 0 8 -15 13 -16 31 -5 16 9 22 9 25
0 6 -17 93 -17 93 0 0 6 -12 65 -27 130 l-27 117 -53 0 c-48 0 -53 -2 -53 -22z"/>
<path d="M2350 753 c-12 -60 -25 -118 -28 -130 -4 -19 0 -23 22 -23 18 0 26 5
26 18 1 16 1 16 11 0 8 -15 13 -16 31 -5 16 9 22 9 25 0 3 -8 23 -13 50 -13
42 0 45 2 41 23 -3 12 -16 70 -29 129 l-24 108 -51 0 -51 0 -23 -107z"/>
<path d="M3024 814 c3 -26 6 -84 6 -130 l0 -84 79 0 c75 0 79 1 83 24 5 23 3
24 -30 19 l-35 -6 6 111 7 112 -62 0 -61 0 7 -46z"/>
<path d="M3210 768 c0 -51 3 -110 6 -130 6 -37 8 -38 49 -38 l42 0 7 77 c3 42
6 100 6 130 l0 53 -55 0 -55 0 0 -92z"/>
<path d="M3625 838 c-17 -78 -46 -206 -51 -220 -4 -14 0 -18 19 -18 14 0 28 6
30 13 4 9 8 8 16 -3 8 -12 13 -12 30 4 19 17 21 17 21 3 0 -14 10 -17 50 -17
35 0 48 4 45 13 -2 6 -16 65 -30 130 l-27 117 -49 0 c-42 0 -49 -3 -54 -22z"/>
<path d="M4034 783 c3 -42 6 -100 6 -130 l0 -53 50 0 50 0 0 84 c0 46 3 104 6
130 l7 46 -63 0 -63 0 7 -77z"/>
<path d="M4200 803 c-6 -32 -20 -91 -30 -130 l-18 -73 23 0 c13 0 27 5 30 10
5 8 11 8 20 0 9 -7 16 -6 25 6 12 14 14 14 22 0 6 -11 24 -16 54 -16 41 0 44
2 39 23 -3 12 -16 69 -29 127 l-23 105 -51 3 -50 3 -12 -58z"/>
</g>
</svg>
